<svg width="32" height="32" viewBox="0 0 32 32" fill="none" xmlns="http://www.w3.org/2000/svg">
<path d="M22 3.7666C19.68 3.7666 17.4534 4.8466 16 6.55327C14.5467 4.8466 12.32 3.7666 10 3.7666C5.89335 3.7666 2.66669 6.99327 2.66669 11.0999C2.66669 16.1399 7.20002 20.2466 14.0667 26.4866L16 28.2333L17.9334 26.4733C24.8 20.2466 29.3334 16.1399 29.3334 11.0999C29.3334 6.99327 26.1067 3.7666 22 3.7666ZM16.1334 24.4999L16 24.6333L15.8667 24.4999C9.52002 18.7533 5.33335 14.9533 5.33335 11.0999C5.33335 8.43327 7.33335 6.43327 10 6.43327C12.0534 6.43327 14.0534 7.75327 14.76 9.57994H17.2534C17.9467 7.75327 19.9467 6.43327 22 6.43327C24.6667 6.43327 26.6667 8.43327 26.6667 11.0999C26.6667 14.9533 22.48 18.7533 16.1334 24.4999Z" fill="#111111"/>
</svg>
