<svg width="32" height="32" viewBox="0 0 32 32" fill="none" xmlns="http://www.w3.org/2000/svg">
<path d="M22 3.7666C19.68 3.7666 17.4533 4.8466 16 6.55327C14.5467 4.8466 12.32 3.7666 9.99999 3.7666C5.89332 3.7666 2.66666 6.99327 2.66666 11.0999C2.66666 16.1399 7.19999 20.2466 14.0667 26.4866L16 28.2333L17.9333 26.4733C24.8 20.2466 29.3333 16.1399 29.3333 11.0999C29.3333 6.99327 26.1067 3.7666 22 3.7666ZM16.1333 24.4999L16 24.6333L15.8667 24.4999C9.51999 18.7533 5.33332 14.9533 5.33332 11.0999C5.33332 8.43327 7.33332 6.43327 9.99999 6.43327C12.0533 6.43327 14.0533 7.75327 14.76 9.57994H17.2533C17.9467 7.75327 19.9467 6.43327 22 6.43327C24.6667 6.43327 26.6667 8.43327 26.6667 11.0999C26.6667 14.9533 22.48 18.7533 16.1333 24.4999Z" fill="#FF334B"/>
</svg>
