<svg width="85" height="33" viewBox="0 0 85 33" fill="none" xmlns="http://www.w3.org/2000/svg">
<path d="M12.2531 6.00438H12.7006C13.4292 6.00438 14.2097 6.27497 14.6885 6.70591C15.0007 6.98652 15.0736 7.10678 14.9591 7.13685C14.8758 7.15689 14.4595 7.25711 14.0432 7.34731C10.7231 8.05886 7.79857 10.6846 6.74739 13.9016C6.58086 14.4328 6.41434 14.984 6.38311 15.1243C6.34148 15.3047 6.19578 15.4249 5.8315 15.5652C3.87485 16.3369 3.37528 18.5718 4.87399 19.8947C5.12378 20.1152 5.5609 20.3858 5.8315 20.496C6.19578 20.6363 6.34148 20.7566 6.38311 20.937C7.68408 26.7096 13.3667 30.1571 19.1118 28.6438C22.7753 27.6917 25.5958 24.7252 26.4492 20.937C26.4909 20.7566 26.6366 20.6363 27.0009 20.496C27.6774 20.2254 28.4371 19.5239 28.6557 18.9627C28.8742 18.4215 28.8951 17.73 28.6973 17.1888C28.5204 16.6576 27.7814 15.916 27.157 15.6354C26.647 15.4049 26.647 15.4049 26.418 14.6031C25.9601 12.9395 25.0858 11.4663 23.7745 10.1434C22.5463 8.91072 21.2141 8.08893 19.6946 7.60788C19.2991 7.47759 18.9244 7.33729 18.862 7.28718C18.7267 7.17694 18.9869 7.00656 19.3095 7.00656C19.5281 7.00656 19.5385 6.9765 19.5385 6.0144V5.03225L19.0285 5.11243C18.3728 5.21265 17.7692 5.5133 17.3008 5.97431C16.947 6.32508 16.9157 6.34512 16.8117 6.1547C16.5723 5.76385 15.8958 5.14249 15.3338 4.81177C14.6885 4.44096 13.783 4.17037 12.8567 4.06013L12.2531 4V6.00438ZM18.3416 9.20136C21.7033 9.98306 24.1387 12.5687 24.7424 15.9761L24.9193 16.9783L25.6166 17.0284C26.2307 17.0685 26.3556 17.1186 26.5741 17.3592C26.9384 17.7701 26.9176 18.3513 26.5221 18.7422C26.2411 19.0128 26.1578 19.0328 25.4813 19.0328H24.7424V19.3736C24.7424 19.564 24.6799 20.045 24.5967 20.4559C24.0034 23.4124 21.9323 25.7074 18.9765 26.6695C17.7484 27.0804 15.9582 27.1706 14.6781 26.9C12.0033 26.3388 9.68237 24.4346 8.70404 21.9993C8.37099 21.1675 8.08998 19.9649 8.08998 19.3736V19.0328H7.35103C6.67453 19.0328 6.59127 19.0128 6.31026 18.7422C5.88354 18.3313 5.88354 17.73 6.31026 17.3191C6.59127 17.0485 6.67453 17.0284 7.35103 17.0284H8.08998V16.6877C8.08998 16.4973 8.15243 16.0162 8.23569 15.6053C8.87056 12.4284 11.2643 9.98306 14.4907 9.20136C15.5107 8.95081 17.2696 8.96083 18.3416 9.20136Z" fill="#6C5FA9"/>
<path d="M12.378 17.099C12.0241 17.1691 11.358 17.8506 11.2852 18.2114C11.0666 19.2537 12.1074 20.1957 13.1586 19.9151C14.3659 19.5944 14.6573 18.0511 13.6269 17.3495C13.3147 17.129 12.7631 17.0188 12.378 17.099Z" fill="#6C5FA9"/>
<path d="M19.6634 17.099C19.3095 17.1691 18.6434 17.8506 18.5706 18.2114C18.352 19.2537 19.3928 20.1957 20.444 19.9151C21.6513 19.5944 21.9427 18.0511 20.9123 17.3495C20.6001 17.129 20.0485 17.0188 19.6634 17.099Z" fill="#6C5FA9"/>
<path d="M41.285 5.81375H42.5217V12.7137H41.285V5.81375ZM41.9704 8.73875H44.5034V9.77375H41.9704V8.73875ZM32.6131 6.57875H38.8116V12.0238H32.6131V6.57875ZM37.6047 7.58375H33.8201V11.0187H37.6047V7.58375ZM33.9542 13.3588H42.5217V16.6888H35.2058V18.7288H33.9989V15.7588H41.2999V14.3488H33.9542V13.3588ZM33.9989 18.2037H42.9985V19.2087H33.9989V18.2037Z" fill="black"/>
<path d="M55.6326 5.81375H56.8544V19.4037H55.6326V5.81375ZM52.8463 10.9287H55.8263V11.9488H52.8463V10.9287ZM46.3946 15.1137H47.4078C48.2621 15.1137 49.022 15.1037 49.6875 15.0837C50.353 15.0637 50.9838 15.0238 51.5798 14.9637C52.1857 14.9037 52.8016 14.8188 53.4274 14.7088L53.5615 15.7288C52.9158 15.8388 52.2851 15.9237 51.6692 15.9837C51.0533 16.0437 50.4027 16.0887 49.7173 16.1187C49.0418 16.1387 48.272 16.1488 47.4078 16.1488H46.3946V15.1137ZM46.3946 7.05875H52.6228V8.07875H47.6164V15.4587H46.3946V7.05875ZM47.3035 10.8687H52.0268V11.8738H47.3035V10.8687Z" fill="black"/>
<path d="M33.7853 25.0812H35.0568V25.3013H33.7853V25.0812ZM34.9276 23.8113H35.1958V27.1063H34.9276V23.8113ZM32.4294 27.9213H35.3299V28.1513H32.4294V27.9213ZM32.4294 26.7713H32.6926V27.9963H32.4294V26.7713ZM32.7919 24.1062C33.0072 24.1062 33.1992 24.1513 33.3681 24.2413C33.537 24.3313 33.6694 24.4579 33.7654 24.6213C33.8648 24.7846 33.9144 24.9712 33.9144 25.1812C33.9144 25.3946 33.8648 25.5829 33.7654 25.7463C33.6694 25.9096 33.537 26.0363 33.3681 26.1263C33.1992 26.2162 33.0072 26.2612 32.7919 26.2612C32.5767 26.2612 32.3847 26.2162 32.2158 26.1263C32.0469 26.0363 31.9128 25.9096 31.8135 25.7463C31.7175 25.5829 31.6695 25.3946 31.6695 25.1812C31.6695 24.9712 31.7175 24.7846 31.8135 24.6213C31.9128 24.4579 32.0469 24.3313 32.2158 24.2413C32.3847 24.1513 32.5767 24.1062 32.7919 24.1062ZM32.7919 24.3413C32.6264 24.3413 32.4774 24.3779 32.3449 24.4513C32.2158 24.5246 32.1132 24.6246 32.037 24.7512C31.9642 24.8779 31.9277 25.0212 31.9277 25.1812C31.9277 25.3412 31.9642 25.4862 32.037 25.6162C32.1132 25.7462 32.2158 25.8479 32.3449 25.9213C32.4774 25.9946 32.6264 26.0312 32.7919 26.0312C32.9575 26.0312 33.1049 25.9946 33.234 25.9213C33.3664 25.8479 33.4691 25.7462 33.5419 25.6162C33.6181 25.4862 33.6562 25.3412 33.6562 25.1812C33.6562 25.0212 33.6181 24.8779 33.5419 24.7512C33.4691 24.6246 33.3664 24.5246 33.234 24.4513C33.1049 24.3779 32.9575 24.3413 32.7919 24.3413Z" fill="black"/>
<path d="M37.3212 24.1662C37.5364 24.1662 37.7235 24.2296 37.8824 24.3563C38.0447 24.4829 38.1705 24.6612 38.2599 24.8912C38.3526 25.1179 38.399 25.3879 38.399 25.7013C38.399 26.0112 38.3526 26.2812 38.2599 26.5113C38.1705 26.7413 38.0447 26.9196 37.8824 27.0462C37.7235 27.1696 37.5364 27.2313 37.3212 27.2313C37.1126 27.2313 36.9255 27.1696 36.76 27.0462C36.5977 26.9196 36.4719 26.7413 36.3825 26.5113C36.2931 26.2812 36.2484 26.0112 36.2484 25.7013C36.2484 25.3879 36.2931 25.1179 36.3825 24.8912C36.4719 24.6612 36.5977 24.4829 36.76 24.3563C36.9255 24.2296 37.1126 24.1662 37.3212 24.1662ZM37.3212 24.4012C37.1589 24.4012 37.0166 24.4579 36.8941 24.5713C36.7715 24.6813 36.6739 24.8329 36.601 25.0262C36.5315 25.2196 36.4967 25.4446 36.4967 25.7013C36.4967 25.9546 36.5315 26.1796 36.601 26.3763C36.6739 26.5729 36.7715 26.7263 36.8941 26.8363C37.0166 26.9463 37.1589 27.0013 37.3212 27.0013C37.4834 27.0013 37.6275 26.9463 37.7533 26.8363C37.8791 26.7263 37.9768 26.5729 38.0463 26.3763C38.1159 26.1796 38.1506 25.9546 38.1506 25.7013C38.1506 25.4446 38.1159 25.2196 38.0463 25.0262C37.9768 24.8329 37.8791 24.6813 37.7533 24.5713C37.6275 24.4579 37.4834 24.4012 37.3212 24.4012ZM39.5016 23.8013H39.7648V28.2663H39.5016V23.8013ZM38.2996 25.5613H39.6257V25.7812H38.2996V25.5613Z" fill="black"/>
<path d="M44.0556 23.8062H44.3238V28.2612H44.0556V23.8062ZM42.0441 24.8063H42.2627V25.2812C42.2627 25.5179 42.2279 25.7463 42.1584 25.9662C42.0921 26.1829 41.9994 26.3829 41.8802 26.5662C41.761 26.7496 41.6269 26.9112 41.4779 27.0513C41.3289 27.1879 41.1733 27.2979 41.0111 27.3813L40.8521 27.1713C41.0077 27.0979 41.1551 26.9979 41.2942 26.8713C41.4365 26.7446 41.564 26.5979 41.6766 26.4312C41.7892 26.2646 41.8786 26.0846 41.9448 25.8913C42.011 25.6946 42.0441 25.4912 42.0441 25.2812V24.8063ZM42.0789 24.8063H42.3024V25.2812C42.3024 25.4812 42.3355 25.6763 42.4017 25.8662C42.468 26.0529 42.559 26.2262 42.6749 26.3862C42.7908 26.5429 42.9199 26.6812 43.0623 26.8012C43.208 26.9212 43.3587 27.0163 43.5143 27.0863L43.3553 27.2963C43.1931 27.2163 43.0358 27.1112 42.8835 26.9813C42.7312 26.8479 42.5938 26.6946 42.4713 26.5212C42.3521 26.3446 42.256 26.1512 42.1832 25.9412C42.1137 25.7312 42.0789 25.5112 42.0789 25.2812V24.8063ZM40.9564 24.6063H43.3752V24.8313H40.9564V24.6063ZM42.0392 23.8713H42.3074V24.7413H42.0392V23.8713Z" fill="black"/>
<path d="M46.484 26.4263H46.7472V27.5462H46.484V26.4263ZM47.9044 26.4163H48.1627V27.5363H47.9044V26.4163ZM45.2969 27.4463H49.315V27.6763H45.2969V27.4463ZM45.8085 24.1612H48.7885V25.4263H46.0817V26.4062H45.8234V25.2062H48.5303V24.3862H45.8085V24.1612ZM45.8234 26.2812H48.8928V26.5063H45.8234V26.2812Z" fill="black"/>
<path d="M50.5293 27.4091L50.4975 27.5991C50.4776 27.7269 50.4493 27.8678 50.4129 28.0217C50.3764 28.1755 50.3388 28.3217 50.3 28.4602C50.2612 28.5987 50.2277 28.71 50.1995 28.794H49.9578C49.9731 28.7135 49.9925 28.6112 50.016 28.4869C50.0407 28.3626 50.066 28.2247 50.0919 28.0732C50.1177 27.9228 50.1413 27.7678 50.1624 27.608L50.1871 27.4091H50.5293Z" fill="black"/>
<path d="M54.0166 25.8713H54.2799V26.7513H54.0166V25.8713ZM53.3362 26.5962H53.5994V27.1462H55.904V26.5962H56.1672V28.1963H53.3362V26.5962ZM53.5994 27.3663V27.9663H55.904V27.3663H53.5994ZM55.899 23.8062H56.1672V26.3563H55.899V23.8062ZM52.6657 26.0312L52.621 25.8013C52.9024 25.8013 53.2087 25.7996 53.5398 25.7962C53.8709 25.7929 54.2103 25.7812 54.558 25.7612C54.9057 25.7413 55.2434 25.7096 55.5712 25.6663L55.5911 25.8662C55.2533 25.9229 54.9123 25.9629 54.5679 25.9863C54.2236 26.0063 53.8875 26.0196 53.5597 26.0263C53.2352 26.0296 52.9372 26.0312 52.6657 26.0312ZM53.967 23.9062H54.1855V24.1612C54.1855 24.3713 54.1309 24.5629 54.0216 24.7363C53.9123 24.9096 53.765 25.0579 53.5796 25.1812C53.3974 25.3046 53.1938 25.3979 52.9687 25.4613L52.8445 25.2512C53.0465 25.1979 53.2319 25.1196 53.4008 25.0163C53.5729 24.9096 53.7103 24.7829 53.813 24.6363C53.9156 24.4896 53.967 24.3312 53.967 24.1612V23.9062ZM54.0166 23.9062H54.2352V24.1612C54.2352 24.3279 54.2865 24.4812 54.3891 24.6213C54.4951 24.7579 54.6325 24.8746 54.8014 24.9713C54.9735 25.0679 55.159 25.1412 55.3576 25.1912L55.2384 25.3963C55.0133 25.3396 54.808 25.2546 54.6226 25.1413C54.4405 25.0246 54.2931 24.8829 54.1805 24.7162C54.0713 24.5496 54.0166 24.3646 54.0166 24.1612V23.9062Z" fill="black"/>
<path d="M60.6617 23.8062H60.92V28.2612H60.6617V23.8062ZM58.6353 25.6963H59.8571V25.9163H58.6353V25.6963ZM59.7478 23.9312H60.0011V28.0162H59.7478V23.9312ZM58.8141 24.3913H59.0674C59.0674 24.7612 59.0078 25.1229 58.8886 25.4762C58.7727 25.8263 58.5889 26.1546 58.3373 26.4613C58.0889 26.7679 57.7711 27.0413 57.3837 27.2812L57.2198 27.0812C57.5741 26.8679 57.8687 26.6212 58.1038 26.3412C58.3422 26.0579 58.5194 25.7546 58.6353 25.4313C58.7545 25.1079 58.8141 24.7746 58.8141 24.4312V24.3913ZM57.3787 24.3913H58.9333V24.6213H57.3787V24.3913Z" fill="black"/>
<path d="M65.2269 24.5462H66.5779V24.7763H65.2269V24.5462ZM65.2269 25.6063H66.5779V25.8363H65.2269V25.6063ZM66.4885 23.8113H66.7567V27.1213H66.4885V23.8113ZM63.9902 27.9213H66.8908V28.1513H63.9902V27.9213ZM63.9902 26.7713H64.2535V27.9963H63.9902V26.7713ZM64.3528 24.1012C64.568 24.1012 64.7601 24.1479 64.9289 24.2413C65.0978 24.3346 65.2302 24.4629 65.3263 24.6262C65.4256 24.7896 65.4753 24.9796 65.4753 25.1963C65.4753 25.4096 65.4256 25.5996 65.3263 25.7663C65.2302 25.9296 65.0978 26.0579 64.9289 26.1513C64.7601 26.2413 64.568 26.2863 64.3528 26.2863C64.1376 26.2863 63.9455 26.2413 63.7767 26.1513C63.6078 26.0579 63.4737 25.9296 63.3744 25.7663C63.2783 25.5996 63.2303 25.4096 63.2303 25.1963C63.2303 24.9796 63.2783 24.7896 63.3744 24.6262C63.4737 24.4629 63.6078 24.3346 63.7767 24.2413C63.9455 24.1479 64.1376 24.1012 64.3528 24.1012ZM64.3528 24.3413C64.1872 24.3413 64.0382 24.3796 63.9058 24.4562C63.7767 24.5296 63.674 24.6312 63.5979 24.7612C63.5217 24.8879 63.4836 25.0329 63.4836 25.1963C63.4836 25.3563 63.5217 25.5013 63.5979 25.6313C63.674 25.7612 63.7767 25.8646 63.9058 25.9412C64.0382 26.0146 64.1872 26.0513 64.3528 26.0513C64.5183 26.0513 64.6657 26.0146 64.7948 25.9412C64.9273 25.8646 65.0299 25.7612 65.1028 25.6313C65.1789 25.5013 65.217 25.3563 65.217 25.1963C65.217 25.0329 65.1789 24.8879 65.1028 24.7612C65.0299 24.6312 64.9273 24.5296 64.7948 24.4562C64.6657 24.3796 64.5183 24.3413 64.3528 24.3413Z" fill="black"/>
<path d="M71.0574 23.8062H71.3257V26.1012H71.0574V23.8062ZM69.7065 24.0562H69.9946C69.9946 24.4163 69.9068 24.7379 69.7313 25.0212C69.5592 25.3046 69.3175 25.5462 69.0062 25.7463C68.695 25.9429 68.3291 26.0946 67.9086 26.2013L67.8092 25.9762C68.1966 25.8796 68.5327 25.7463 68.8175 25.5763C69.1022 25.4029 69.3208 25.1979 69.4731 24.9612C69.6287 24.7212 69.7065 24.4562 69.7065 24.1662V24.0562ZM68.0178 24.0562H69.8406V24.2812H68.0178V24.0562ZM69.8406 24.5012H71.1171V24.7262H69.8406V24.5012ZM69.7959 25.3462H71.0922V25.5713H69.7959V25.3462ZM68.5244 26.3312H71.3257V27.3463H68.7926V28.1513H68.5344V27.1262H71.0624V26.5562H68.5244V26.3312ZM68.5344 27.9963H71.5045V28.2163H68.5344V27.9963Z" fill="black"/>
<path d="M72.6712 25.7962H74.9062V26.0213H72.6712V25.7962ZM73.6248 25.9712H73.893V27.0462H73.6248V25.9712ZM72.6712 24.2413H74.8914V24.4713H72.9345V25.8863H72.6712V24.2413ZM75.5768 23.8013H75.845V28.2663H75.5768V23.8013ZM72.3633 27.2463L72.3186 27.0112C72.6133 27.0079 72.9262 27.0029 73.2573 26.9963C73.5917 26.9896 73.9295 26.9779 74.2705 26.9613C74.6149 26.9412 74.946 26.9113 75.2639 26.8713L75.2887 27.0763C74.9642 27.1229 74.6298 27.1596 74.2854 27.1862C73.9444 27.2129 73.6099 27.2296 73.2821 27.2363C72.9543 27.2429 72.6481 27.2463 72.3633 27.2463Z" fill="black"/>
<path d="M79.957 23.8013H80.2252V28.2663H79.957V23.8013ZM80.1557 25.6313H81V25.8612H80.1557V25.6313ZM77.0614 26.8962H77.3942C77.6823 26.8962 77.9405 26.8929 78.169 26.8862C78.4008 26.8762 78.6209 26.8596 78.8296 26.8363C79.0415 26.8129 79.2583 26.7796 79.4802 26.7362L79.5199 26.9713C79.2915 27.0146 79.0696 27.0479 78.8544 27.0713C78.6392 27.0946 78.414 27.1112 78.1789 27.1213C77.9471 27.1279 77.6856 27.1313 77.3942 27.1313H77.0614V26.8962ZM77.0614 24.2513H79.1077V24.4762H77.3246V26.9912H77.0614V24.2513Z" fill="black"/>
</svg>
