<svg width="85" height="33" viewBox="0 0 85 33" fill="none" xmlns="http://www.w3.org/2000/svg">
<path d="M12.1349 6.00438H12.576C13.2941 6.00438 14.0635 6.27497 14.5354 6.70591C14.8432 6.98652 14.915 7.10678 14.8021 7.13685C14.7201 7.15689 14.3097 7.25711 13.8994 7.34731C10.6269 8.05886 7.74417 10.6846 6.70804 13.9016C6.5439 14.4328 6.37976 14.984 6.34898 15.1243C6.30795 15.3047 6.16433 15.4249 5.80527 15.5652C3.87664 16.3369 3.38422 18.5718 4.86147 19.8947C5.10768 20.1152 5.53855 20.3858 5.80527 20.496C6.16433 20.6363 6.30795 20.7566 6.34898 20.937C7.63132 26.7096 13.2326 30.1571 18.8954 28.6438C22.5064 27.6917 25.2865 24.7252 26.1277 20.937C26.1688 20.7566 26.3124 20.6363 26.6714 20.496C27.3383 20.2254 28.0871 19.5239 28.3026 18.9627C28.518 18.4215 28.5385 17.73 28.3436 17.1888C28.1692 16.6576 27.4408 15.916 26.8253 15.6354C26.3226 15.4049 26.3226 15.4049 26.097 14.6031C25.6456 12.9395 24.7838 11.4663 23.4912 10.1434C22.2807 8.91072 20.9676 8.08893 19.4698 7.60788C19.08 7.47759 18.7107 7.33729 18.6491 7.28718C18.5158 7.17694 18.7723 7.00656 19.0903 7.00656C19.3057 7.00656 19.316 6.9765 19.316 6.0144V5.03225L18.8133 5.11243C18.167 5.21265 17.572 5.5133 17.1103 5.97431C16.7616 6.32508 16.7308 6.34512 16.6282 6.1547C16.3922 5.76385 15.7254 5.14249 15.1715 4.81177C14.5354 4.44096 13.6429 4.17037 12.7299 4.06013L12.1349 4V6.00438ZM18.1362 9.20136C21.4498 9.98306 23.8503 12.5687 24.4453 15.9761L24.6197 16.9783L25.307 17.0284C25.9123 17.0685 26.0354 17.1186 26.2508 17.3592C26.6099 17.7701 26.5894 18.3513 26.1995 18.7422C25.9226 19.0128 25.8405 19.0328 25.1737 19.0328H24.4453V19.3736C24.4453 19.564 24.3838 20.045 24.3017 20.4559C23.7169 23.4124 21.6755 25.7074 18.762 26.6695C17.5515 27.0804 15.787 27.1706 14.5252 26.9C11.8887 26.3388 9.60099 24.4346 8.63667 21.9993C8.30839 21.1675 8.03141 19.9649 8.03141 19.3736V19.0328H7.30304C6.63623 19.0328 6.55416 19.0128 6.27717 18.7422C5.85657 18.3313 5.85657 17.73 6.27717 17.3191C6.55416 17.0485 6.63623 17.0284 7.30304 17.0284H8.03141V16.6877C8.03141 16.4973 8.09296 16.0162 8.17503 15.6053C8.80081 12.4284 11.1603 9.98306 14.3405 9.20136C15.3459 8.95081 17.0796 8.96083 18.1362 9.20136Z" fill="#6C5FA9"/>
<path d="M12.258 17.099C11.9092 17.1692 11.2527 17.8507 11.1808 18.2115C10.9654 19.2537 11.9913 20.1958 13.0274 19.9152C14.2174 19.5945 14.5047 18.0511 13.489 17.3496C13.1813 17.1291 12.6376 17.0189 12.258 17.099Z" fill="#6C5FA9"/>
<path d="M19.4391 17.099C19.0903 17.1692 18.4337 17.8507 18.3619 18.2115C18.1465 19.2537 19.1723 20.1958 20.2085 19.9152C21.3985 19.5945 21.6857 18.0511 20.6701 17.3496C20.3623 17.1291 19.8186 17.0189 19.4391 17.099Z" fill="#6C5FA9"/>
<path d="M40.2663 5.5075H42.2197V12.4375H40.2663V5.5075ZM41.4413 8.1625H44.0114V9.7825H41.4413V8.1625ZM31.9096 6.1525H38.4011V11.9275H31.9096V6.1525ZM36.4772 7.6975H33.8336V10.3525H36.4772V7.6975ZM33.2461 12.9775H42.2197V16.7875H35.1994V18.4525H33.2608V15.3475H40.2957V14.5225H33.2461V12.9775ZM33.2608 17.6875H42.6162V19.2475H33.2608V17.6875Z" fill="black"/>
<path d="M54.4966 5.4775H56.4499V19.4125H54.4966V5.4775ZM52.1614 10.3825H54.7316V12.0025H52.1614V10.3825ZM45.6405 14.6725H46.742C47.4959 14.6725 48.1911 14.6625 48.8275 14.6425C49.4738 14.6225 50.1004 14.5875 50.7074 14.5375C51.3145 14.4875 51.9362 14.4175 52.5726 14.3275L52.7636 15.9025C52.1076 16.0125 51.4614 16.0925 50.8249 16.1425C50.1983 16.1925 49.5521 16.2275 48.8863 16.2475C48.2205 16.2675 47.5057 16.2775 46.742 16.2775H45.6405V14.6725ZM45.6405 6.6475H51.9411V8.2675H47.5939V15.1675H45.6405V6.6475ZM47.1386 10.5175H51.4858V12.0775H47.1386V10.5175Z" fill="black"/>
<path d="M34.5951 25.1425H35.7798V25.5675H34.5951V25.1425ZM35.5546 23.9075H36.0687V27.2575H35.5546V23.9075ZM33.1705 27.9575H36.1862V28.3825H33.1705V27.9575ZM33.1705 26.9275H33.6845V28.1625H33.1705V26.9275ZM33.5866 24.1925C33.8086 24.1925 34.0076 24.2425 34.1839 24.3425C34.3601 24.4392 34.4988 24.5742 34.6 24.7475C34.7012 24.9208 34.7518 25.1175 34.7518 25.3375C34.7518 25.5608 34.7012 25.7592 34.6 25.9325C34.4988 26.1058 34.3601 26.2425 34.1839 26.3425C34.0076 26.4392 33.8086 26.4875 33.5866 26.4875C33.368 26.4875 33.1705 26.4392 32.9943 26.3425C32.818 26.2425 32.6793 26.1058 32.5781 25.9325C32.477 25.7592 32.4264 25.5608 32.4264 25.3375C32.4264 25.1175 32.477 24.9208 32.5781 24.7475C32.6793 24.5742 32.818 24.4392 32.9943 24.3425C33.1705 24.2425 33.368 24.1925 33.5866 24.1925ZM33.5915 24.6525C33.4642 24.6525 33.3484 24.6808 33.2439 24.7375C33.1428 24.7942 33.0628 24.8742 33.0041 24.9775C32.9453 25.0808 32.9159 25.2008 32.9159 25.3375C32.9159 25.4775 32.9453 25.5992 33.0041 25.7025C33.0628 25.8058 33.1428 25.8858 33.2439 25.9425C33.3451 25.9992 33.461 26.0275 33.5915 26.0275C33.7188 26.0275 33.833 25.9992 33.9342 25.9425C34.0354 25.8858 34.1153 25.8058 34.1741 25.7025C34.2328 25.5992 34.2622 25.4775 34.2622 25.3375C34.2622 25.2008 34.2328 25.0808 34.1741 24.9775C34.1153 24.8742 34.0354 24.7942 33.9342 24.7375C33.833 24.6808 33.7188 24.6525 33.5915 24.6525Z" fill="black"/>
<path d="M38.0706 24.2375C38.2925 24.2375 38.4883 24.3042 38.6581 24.4375C38.8278 24.5708 38.9616 24.7575 39.0595 24.9975C39.1574 25.2375 39.2064 25.5208 39.2064 25.8475C39.2064 26.1775 39.1574 26.4642 39.0595 26.7075C38.9616 26.9475 38.8278 27.1342 38.6581 27.2675C38.4883 27.3975 38.2925 27.4625 38.0706 27.4625C37.8519 27.4625 37.6561 27.3975 37.4831 27.2675C37.3134 27.1342 37.1796 26.9475 37.0817 26.7075C36.987 26.4642 36.9397 26.1775 36.9397 25.8475C36.9397 25.5208 36.987 25.2375 37.0817 24.9975C37.1796 24.7575 37.3134 24.5708 37.4831 24.4375C37.6561 24.3042 37.8519 24.2375 38.0706 24.2375ZM38.0706 24.7125C37.9433 24.7125 37.8307 24.7575 37.7328 24.8475C37.6381 24.9375 37.5631 25.0675 37.5076 25.2375C37.4554 25.4075 37.4293 25.6108 37.4293 25.8475C37.4293 26.0875 37.4554 26.2925 37.5076 26.4625C37.5631 26.6325 37.6381 26.7642 37.7328 26.8575C37.8307 26.9475 37.9433 26.9925 38.0706 26.9925C38.2011 26.9925 38.3137 26.9475 38.4084 26.8575C38.5063 26.7642 38.5814 26.6325 38.6336 26.4625C38.6891 26.2925 38.7168 26.0875 38.7168 25.8475C38.7168 25.6108 38.6891 25.4075 38.6336 25.2375C38.5814 25.0675 38.5063 24.9375 38.4084 24.8475C38.3137 24.7575 38.2011 24.7125 38.0706 24.7125ZM40.068 23.9025H40.582V28.4825H40.068V23.9025ZM39.0448 25.6025H40.2883V26.0275H39.0448V25.6025Z" fill="black"/>
<path d="M44.5421 23.9025H45.0562V28.4725H44.5421V23.9025ZM42.5496 25.0375H42.956V25.3575C42.956 25.6008 42.9266 25.8392 42.8679 26.0725C42.8124 26.3025 42.7291 26.5175 42.6182 26.7175C42.5072 26.9175 42.375 27.0942 42.2216 27.2475C42.0682 27.4008 41.8953 27.5225 41.7027 27.6125L41.4237 27.2075C41.5999 27.1242 41.7566 27.0175 41.8936 26.8875C42.0307 26.7575 42.1482 26.6108 42.2461 26.4475C42.344 26.2808 42.4191 26.1058 42.4713 25.9225C42.5235 25.7358 42.5496 25.5475 42.5496 25.3575V25.0375ZM42.6525 25.0375H43.0588V25.3575C43.0588 25.5375 43.0849 25.7158 43.1371 25.8925C43.1893 26.0692 43.2644 26.2375 43.3623 26.3975C43.4635 26.5542 43.5842 26.6958 43.7246 26.8225C43.8649 26.9492 44.0216 27.0508 44.1946 27.1275L43.9155 27.5325C43.7262 27.4458 43.5532 27.3292 43.3966 27.1825C43.2399 27.0325 43.1061 26.8625 42.9951 26.6725C42.8842 26.4792 42.7993 26.2708 42.7406 26.0475C42.6818 25.8242 42.6525 25.5942 42.6525 25.3575V25.0375ZM41.5607 24.6775H44.033V25.0925H41.5607V24.6775ZM42.5448 23.9975H43.0588V24.9025H42.5448V23.9975Z" fill="black"/>
<path d="M46.9602 26.5775H47.4644V27.6775H46.9602V26.5775ZM48.3799 26.5725H48.8841V27.6725H48.3799V26.5725ZM45.8734 27.5075H49.9269V27.9375H45.8734V27.5075ZM46.3531 24.2225H49.4471V25.6625H46.8671V26.5175H46.3629V25.2525H48.938V24.6475H46.3531V24.2225ZM46.3629 26.2975H49.5499V26.7175H46.3629V26.2975Z" fill="black"/>
<path d="M51.1774 27.5653L51.1513 27.7589C51.1339 27.9009 51.1044 28.0489 51.0627 28.2028C51.0221 28.3578 50.9798 28.5017 50.9358 28.6342C50.8929 28.7668 50.8575 28.8722 50.8297 28.9503H50.4611C50.4762 28.8769 50.4971 28.7775 50.5237 28.652C50.5504 28.5277 50.5765 28.3886 50.602 28.2347C50.6275 28.0808 50.6466 27.924 50.6593 27.7642L50.6767 27.5653H51.1774Z" fill="black"/>
<path d="M54.3179 26.0375H54.827V26.8575H54.3179V26.0375ZM53.7108 26.7475H54.22V27.1875H56.1929V26.7475H56.7069V28.4175H53.7108V26.7475ZM54.22 27.5825V28.0025H56.1929V27.5825H54.22ZM56.188 23.9075H56.7069V26.5325H56.188V23.9075ZM53.094 26.2925L53.0353 25.8725C53.3127 25.8725 53.6129 25.8708 53.936 25.8675C54.2624 25.8608 54.5953 25.8492 54.9347 25.8325C55.2742 25.8125 55.6022 25.7808 55.9188 25.7375L55.953 26.1175C55.6266 26.1708 55.2954 26.2108 54.9592 26.2375C54.6231 26.2642 54.2951 26.2808 53.9752 26.2875C53.6586 26.2908 53.3649 26.2925 53.094 26.2925ZM54.264 24.0225H54.6753V24.2275C54.6753 24.4508 54.6263 24.6575 54.5284 24.8475C54.4338 25.0375 54.2934 25.2008 54.1074 25.3375C53.9214 25.4708 53.6962 25.5692 53.4318 25.6325L53.2066 25.2325C53.4351 25.1825 53.6276 25.1075 53.7843 25.0075C53.9409 24.9042 54.0601 24.7858 54.1417 24.6525C54.2233 24.5192 54.264 24.3775 54.264 24.2275V24.0225ZM54.3815 24.0225H54.7928V24.2275C54.7928 24.3675 54.8336 24.5008 54.9152 24.6275C55 24.7542 55.1191 24.8642 55.2725 24.9575C55.4292 25.0508 55.6169 25.1208 55.8355 25.1675L55.6201 25.5625C55.3623 25.5025 55.1404 25.4092 54.9543 25.2825C54.7683 25.1558 54.6263 25.0025 54.5284 24.8225C54.4305 24.6392 54.3815 24.4408 54.3815 24.2275V24.0225Z" fill="black"/>
<path d="M60.8629 23.9025H61.3524V28.4725H60.8629V23.9025ZM58.9977 25.7225H60.0453V26.1375H58.9977V25.7225ZM59.9278 24.0125H60.4076V28.2525H59.9278V24.0125ZM58.9634 24.4625H59.4579C59.4579 24.8792 59.404 25.2725 59.2963 25.6425C59.1919 26.0125 59.0173 26.3542 58.7725 26.6675C58.531 26.9808 58.2062 27.2608 57.7983 27.5075L57.5045 27.1325C57.8505 26.9225 58.1295 26.6875 58.3417 26.4275C58.5571 26.1675 58.7137 25.8825 58.8116 25.5725C58.9128 25.2625 58.9634 24.9275 58.9634 24.5675V24.4625ZM57.7199 24.4625H59.1348V24.8875H57.7199V24.4625Z" fill="black"/>
<path d="M65.3745 24.5825H66.711V25.0075H65.3745V24.5825ZM65.3745 25.6875H66.711V26.1125H65.3745V25.6875ZM66.5201 23.9075H67.0341V27.2675H66.5201V23.9075ZM64.1359 27.9575H67.1516V28.3825H64.1359V27.9575ZM64.1359 26.9325H64.65V28.1625H64.1359V26.9325ZM64.552 24.1875C64.774 24.1875 64.9731 24.2375 65.1493 24.3375C65.3255 24.4375 65.4642 24.5742 65.5654 24.7475C65.6666 24.9208 65.7172 25.1208 65.7172 25.3475C65.7172 25.5742 65.6666 25.7758 65.5654 25.9525C65.4642 26.1258 65.3255 26.2625 65.1493 26.3625C64.9731 26.4592 64.774 26.5075 64.552 26.5075C64.3334 26.5075 64.1359 26.4592 63.9597 26.3625C63.7834 26.2625 63.6447 26.1258 63.5436 25.9525C63.4424 25.7758 63.3918 25.5742 63.3918 25.3475C63.3918 25.1208 63.4424 24.9208 63.5436 24.7475C63.6447 24.5742 63.7834 24.4375 63.9597 24.3375C64.1359 24.2375 64.3334 24.1875 64.552 24.1875ZM64.552 24.6525C64.4248 24.6525 64.3105 24.6825 64.2094 24.7425C64.1082 24.7992 64.0266 24.8792 63.9646 24.9825C63.9058 25.0858 63.8765 25.2075 63.8765 25.3475C63.8765 25.4875 63.9058 25.6108 63.9646 25.7175C64.0266 25.8242 64.1082 25.9075 64.2094 25.9675C64.3105 26.0242 64.4264 26.0525 64.5569 26.0525C64.6842 26.0525 64.7985 26.0242 64.8996 25.9675C65.0008 25.9075 65.0808 25.8242 65.1395 25.7175C65.1983 25.6108 65.2276 25.4875 65.2276 25.3475C65.2276 25.2075 65.1983 25.0858 65.1395 24.9825C65.0808 24.8792 65.0008 24.7992 64.8996 24.7425C64.7985 24.6825 64.6826 24.6525 64.552 24.6525Z" fill="black"/>
<path d="M71.0236 23.9025H71.5376V26.2175H71.0236V23.9025ZM69.5794 24.1075H70.1375C70.1375 24.4975 70.0575 24.8408 69.8976 25.1375C69.7377 25.4308 69.5043 25.6758 69.1976 25.8725C68.8908 26.0692 68.5154 26.2192 68.0716 26.3225L67.8953 25.8975C68.2772 25.8142 68.5921 25.6992 68.8402 25.5525C69.0882 25.4025 69.2726 25.2292 69.3934 25.0325C69.5174 24.8325 69.5794 24.6142 69.5794 24.3775V24.1075ZM68.1352 24.1075H69.7997V24.5275H68.1352V24.1075ZM69.9711 24.5225H71.097V24.9275H69.9711V24.5225ZM69.9319 25.4075H71.0775V25.8075H69.9319V25.4075ZM68.6248 26.4125H71.5376V27.5925H69.1437V28.2475H68.6346V27.1975H71.0285V26.8275H68.6248V26.4125ZM68.6346 28.0125H71.66V28.4325H68.6346V28.0125Z" fill="black"/>
<path d="M72.6681 25.8225H74.9739V26.2425H72.6681V25.8225ZM73.5493 26.1625H74.0634V27.1725H73.5493V26.1625ZM72.6681 24.3225H74.9544V24.7475H73.1773V25.9575H72.6681V24.3225ZM75.5027 23.9025H76.0167V28.4825H75.5027V23.9025ZM72.4234 27.5325L72.3548 27.1025C72.6453 27.0992 72.9537 27.0958 73.2801 27.0925C73.6064 27.0892 73.9361 27.0792 74.269 27.0625C74.6019 27.0425 74.9234 27.0158 75.2334 26.9825L75.2726 27.3675C74.9495 27.4175 74.6215 27.4558 74.2886 27.4825C73.9589 27.5058 73.6358 27.5208 73.3192 27.5275C73.0027 27.5308 72.704 27.5325 72.4234 27.5325Z" fill="black"/>
<path d="M79.7908 23.9025H80.3048V28.4825H79.7908V23.9025ZM80.1922 25.6575H81V26.0925H80.1922V25.6575ZM77.0199 26.9225H77.3822C77.6498 26.9225 77.8962 26.9192 78.1214 26.9125C78.3466 26.9025 78.5653 26.8875 78.7774 26.8675C78.9896 26.8442 79.205 26.8125 79.4236 26.7725L79.4775 27.2075C79.2523 27.2508 79.0303 27.2842 78.8117 27.3075C78.5963 27.3275 78.3711 27.3425 78.1361 27.3525C77.9044 27.3592 77.6531 27.3625 77.3822 27.3625H77.0199V26.9225ZM77.0199 24.3375H79.1005V24.7625H77.529V27.1275H77.0199V24.3375Z" fill="black"/>
</svg>
