<svg width="32" height="32" viewBox="0 0 32 32" fill="none" xmlns="http://www.w3.org/2000/svg">
<path d="M11.151 2.20132V3.4134H11.6722C12.5206 3.4134 13.4297 3.74066 13.9873 4.26186C14.3509 4.60124 14.4357 4.74669 14.3024 4.78305C14.2054 4.80729 13.7206 4.9285 13.2358 5.03759C9.36923 5.89816 5.96328 9.07382 4.73908 12.9646C4.54515 13.607 4.35122 14.2736 4.31485 14.4433C4.26637 14.6615 4.09668 14.807 3.67245 14.9766C1.39374 15.91 0.811941 18.6129 2.55734 20.2128C2.84824 20.4795 3.35731 20.8068 3.67245 20.9401C4.09668 21.1098 4.26637 21.2552 4.31485 21.4734C5.82995 28.455 12.4479 32.6245 19.1386 30.7943C23.4051 29.6428 26.6899 26.0551 27.6838 21.4734C27.7322 21.2552 27.9019 21.1098 28.3262 20.9401C29.114 20.6128 29.9988 19.7644 30.2534 19.0856C30.5079 18.4311 30.5322 17.5947 30.3019 16.9402C30.0958 16.2978 29.2352 15.4009 28.508 15.0615C27.9141 14.7827 27.9141 14.7827 27.6474 13.8131C27.1141 11.801 26.0959 10.0192 24.5687 8.41929C23.1385 6.92843 21.587 5.93453 19.8174 5.35273C19.3568 5.19516 18.9204 5.02547 18.8477 4.96486C18.6901 4.83154 18.9931 4.62548 19.3689 4.62548C19.6234 4.62548 19.6356 4.58912 19.6356 3.42552V2.23768L19.0416 2.33465C18.278 2.45585 17.575 2.81948 17.0296 3.37704C16.6175 3.80127 16.5811 3.82551 16.4599 3.59521C16.1811 3.1225 15.3933 2.37101 14.7387 1.97102C13.9873 1.52255 12.9327 1.19529 11.854 1.06196L11.151 0.989239V2.20132ZM18.2417 7.27994C22.1567 8.22536 24.9929 11.3525 25.696 15.4736L25.902 16.6857L26.7141 16.7463C27.4292 16.7948 27.5747 16.8554 27.8292 17.1463C28.2534 17.6432 28.2292 18.3462 27.7686 18.8189C27.4413 19.1462 27.3444 19.1704 26.5565 19.1704H25.696V19.5826C25.696 19.8128 25.6232 20.3946 25.5263 20.8916C24.8354 24.4672 22.4233 27.2429 18.981 28.4065C17.5508 28.9035 15.466 29.0125 13.9751 28.6853C10.8601 28.0065 8.15715 25.7036 7.01779 22.7582C6.62993 21.7522 6.30267 20.2977 6.30267 19.5826V19.1704H5.44209C4.65424 19.1704 4.55727 19.1462 4.23001 18.8189C3.73305 18.322 3.73305 17.5947 4.23001 17.0978C4.55727 16.7705 4.65424 16.7463 5.44209 16.7463H6.30267V16.3342C6.30267 16.1039 6.37539 15.5221 6.47236 15.0251C7.21173 11.1828 9.99951 8.22536 13.757 7.27994C14.9448 6.97692 16.9932 6.98904 18.2417 7.27994Z" fill="#6C5FA9"/>
<path d="M11.2965 16.8313C10.8844 16.9161 10.1086 17.7403 10.0238 18.1767C9.76924 19.4372 10.9813 20.5766 12.2055 20.2372C13.6115 19.8493 13.9509 17.9827 12.751 17.1343C12.3873 16.8676 11.7449 16.7343 11.2965 16.8313Z" fill="#6C5FA9"/>
<path d="M19.781 16.8313C19.3689 16.9161 18.5932 17.7403 18.5083 18.1767C18.2538 19.4372 19.4659 20.5766 20.6901 20.2372C22.0961 19.8493 22.4355 17.9827 21.2355 17.1343C20.8719 16.8676 20.2295 16.7343 19.781 16.8313Z" fill="#6C5FA9"/>
</svg>
